<?xml version="1.0" encoding="utf-8"?>
<!-- Generator: Adobe Illustrator 19.1.0, SVG Export Plug-In . SVG Version: 6.00 Build 0)  -->
<!DOCTYPE svg PUBLIC "-//W3C//DTD SVG 1.1//EN" "http://www.w3.org/Graphics/SVG/1.1/DTD/svg11.dtd">
<svg version="1.1" id="Layer_1" xmlns="http://www.w3.org/2000/svg" xmlns:xlink="http://www.w3.org/1999/xlink" x="0px" y="0px"
	 width="253.5px" height="81.4px" viewBox="0 0 253.5 81.4" style="enable-background:new 0 0 253.5 81.4;" xml:space="preserve">
<style type="text/css">
	.st0{fill:#FFFFFF;}
	.st1{fill:#7B1820;}
</style>
<g>
	<path class="st0" d="M245.3,32.2c0,0.1,0.1,0.3,0.1,0.4L245.3,32.2L245.3,32.2z"/>
</g>
<g>
	<path class="st0" d="M245.3,59.5L245.3,59.5l0.1-0.4C245.4,59.2,245.4,59.3,245.3,59.5z"/>
</g>
<path class="st0" d="M245.4,59.1v0.4h-0.1C245.4,59.3,245.4,59.2,245.4,59.1z"/>
<g>
	<g>
		<path class="st0" d="M36.8,44.2c0.1-1.7,0.3-3.5,0.8-5.3s1.1-3.7,1.9-5.4c0.8-1.7,1.8-3.4,2.9-4.9c1.1-1.5,2.4-2.9,3.7-4
			c2.9-2.4,5.9-3.6,9.1-3.6c3.8,0,6.3,1.7,7.5,5.2c0.4,1.2,0.6,2.7,0.6,4.5c0,1.8-0.3,3.6-0.8,5.5c-0.5,1.9-1.2,3.7-2,5.4
			c-0.9,1.7-1.9,3.4-3,4.9s-2.4,2.8-3.7,4c-2.9,2.4-5.7,3.6-8.6,3.6c-2.6,0-4.6-0.8-6.1-2.5C37.4,49.8,36.7,47.3,36.8,44.2z
			 M41.9,41.1c-0.4,1.7-0.7,3.2-0.7,4.4c0,1.2,0,2.1,0.2,2.8c0.2,0.7,0.4,1.2,0.8,1.7c0.7,1,1.5,1.4,2.6,1.4c1.1,0,2.1-0.3,3.2-1
			c1.1-0.7,2.1-1.6,3.1-2.8c1-1.2,2-2.5,2.9-4s1.7-3.1,2.4-4.7c2-4.8,2.7-8.7,2.2-11.8c-0.4-2.1-1.5-3.2-3.5-3.2
			c-1.8,0-3.8,1.2-6,3.7c-2.1,2.3-3.9,5.2-5.4,8.6C42.9,37.7,42.4,39.4,41.9,41.1z"/>
		<path class="st0" d="M79.4,35.9c-0.4,0-1.1,0.4-1.9,1.3c-0.8,0.8-1.5,1.6-2.1,2.3l-1.8,2.2l-3.5,4.4c-0.8,1.6-1.5,2.8-1.9,3.9
			L67,52.4c-0.3,0.6-0.6,1-0.8,1.3c-0.2,0.2-0.5,0.4-0.9,0.4c-0.4,0-0.7-0.1-1.1-0.2c-0.3-0.1-0.6-0.3-0.9-0.5
			c-0.5-0.5-0.8-0.9-0.8-1.5c0-0.2,0.2-0.6,0.5-1.2l0.8-1.7c0.3-0.5,0.6-1.2,0.9-1.9l1.2-2.9c1.7-4.2,2.5-6.9,2.5-8.1
			c0-0.6-0.2-1.1-0.6-1.4l-0.4-0.3c-0.1-0.1-0.2-0.3-0.2-0.5s0.1-0.5,0.3-0.7c0.2-0.2,0.4-0.4,0.8-0.6c0.6-0.3,1.3-0.5,1.9-0.5
			c0.6,0,1.1,0.1,1.5,0.2c0.4,0.1,0.6,0.3,0.9,0.6c0.5,0.5,0.8,1,0.8,1.5c0,0.5-0.1,1.1-0.2,1.6c-0.1,0.5-0.3,1.1-0.5,1.7
			c-0.2,0.6-0.4,1.1-0.6,1.6c-0.2,0.5-0.4,1-0.6,1.4l-0.4,0.9c-0.1,0.2-0.1,0.3-0.1,0.2c1.6-2.2,2.6-3.6,3.1-4.2l1.5-1.8
			c1.1-1.3,1.9-2.1,2.6-2.5c1.3-0.8,2.2-1.3,3-1.3c0.7,0,1.3,0.1,1.8,0.3s0.9,0.4,1.3,0.8c0.8,0.7,1.2,1.6,1.2,2.8s-0.3,2.3-0.8,3.5
			c-0.5,1.2-1,2.2-1.3,3c-0.4,0.8-0.7,1.5-1.1,2.3c-1.1,2.4-1.6,4.1-1.6,5.1c0,0.5,0.4,0.7,1.1,0.7c0.6,0,1.1-0.1,1.6-0.4
			c0.5-0.3,0.8-0.4,0.9-0.4c0.3,0,0.4,0.1,0.4,0.4c0,1.3-0.6,2.3-1.9,3.2C81.8,53.8,81,54,80.3,54S79,54,78.5,53.8
			c-0.5-0.2-0.9-0.4-1.3-0.7c-0.8-0.7-1.2-1.8-1.2-3.1c0-1.6,0.5-3.7,1.5-6.1c0.7-1.7,1.3-2.8,1.6-3.5l0.7-1.5
			c0.4-0.9,0.7-1.6,0.7-2.1C80.5,36.2,80.1,35.9,79.4,35.9z"/>
		<path class="st0" d="M88.6,46.4c0.1-1.2,0.3-2.4,0.6-3.5c0.4-1.1,0.8-2.2,1.4-3.3c0.6-1.1,1.3-2,2.1-3c0.8-0.9,1.7-1.8,2.6-2.5
			c2-1.5,4.1-2.3,6.1-2.3c2.4,0,4,1,4.8,3c0.3,0.7,0.4,1.5,0.4,2.4c0,0.9-0.2,1.8-0.5,2.6c-0.3,0.8-0.8,1.5-1.4,2.1
			c-0.6,0.6-1.3,1.2-2.1,1.7c-0.8,0.5-1.7,0.9-2.7,1.3c-2,0.7-4.2,1.1-6.4,1.1c-0.1,0.2-0.1,0.5-0.1,0.9c0,0.4,0,0.8,0.1,1.3
			c0.1,0.5,0.3,0.9,0.5,1.3c0.5,0.8,1.2,1.3,2.2,1.3c1.6,0,3.2-0.5,4.8-1.4c0.6-0.3,1-0.7,1.3-1c0.3-0.3,0.6-0.5,0.9-0.5
			s0.5,0.2,0.7,0.5c0.2,0.3,0.3,0.6,0.3,1c0,0.7-0.2,1.4-0.6,1.9c-1.8,1.8-4.4,2.7-7.9,2.7c-2.1,0-3.7-0.6-5-1.9
			C89.2,50.8,88.5,48.8,88.6,46.4z M101,34.7c-1.5,0-2.9,1-4.3,3c-1.2,1.8-2.1,3.8-2.8,6.2c2.4-0.2,4.4-1.2,6.1-2.8
			c1.6-1.5,2.4-3,2.4-4.4C102.5,35.4,102,34.7,101,34.7z"/>
		<path class="st0" d="M125.7,46c-0.4,0-0.6-0.2-0.6-0.7v-4.5H121c-0.5,0-0.8-0.2-0.8-0.6c0-0.3,0.1-0.5,0.3-0.7
			c0.3-0.3,0.6-0.5,0.9-0.5h3.8v-3.8c0-0.3,0.1-0.5,0.3-0.7c0.3-0.3,0.6-0.5,0.9-0.5c0.4,0,0.6,0.3,0.6,0.8v4.2h4.5
			c0.4,0,0.7,0.2,0.7,0.6c0,0.3-0.1,0.5-0.3,0.7c-0.3,0.3-0.7,0.5-1,0.5h-3.9v3.9c0,0.4-0.1,0.6-0.3,0.8C126.3,45.8,126,46,125.7,46
			z"/>
		<path class="st0" d="M142.6,44.2c0.1-1.7,0.3-3.5,0.8-5.3c0.5-1.9,1.1-3.7,1.9-5.4c0.8-1.7,1.8-3.4,2.9-4.9c1.1-1.5,2.4-2.9,3.7-4
			c2.9-2.4,5.9-3.6,9.1-3.6c3.8,0,6.3,1.7,7.5,5.2c0.4,1.2,0.6,2.7,0.6,4.5c0,1.8-0.3,3.6-0.8,5.5c-0.5,1.9-1.2,3.7-2,5.4
			c-0.9,1.7-1.9,3.4-3,4.9c-1.1,1.5-2.4,2.8-3.7,4c-2.9,2.4-5.7,3.6-8.6,3.6c-2.6,0-4.6-0.8-6.1-2.5
			C143.2,49.8,142.5,47.3,142.6,44.2z M147.8,41.1c-0.4,1.7-0.7,3.2-0.7,4.4s0,2.1,0.2,2.8c0.2,0.7,0.4,1.2,0.8,1.7
			c0.7,1,1.5,1.4,2.6,1.4s2.1-0.3,3.2-1c1.1-0.7,2.1-1.6,3.1-2.8c1-1.2,2-2.5,2.9-4c0.9-1.5,1.7-3.1,2.4-4.7c2-4.8,2.7-8.7,2.2-11.8
			c-0.4-2.1-1.5-3.2-3.5-3.2c-1.8,0-3.8,1.2-6,3.7c-2.1,2.3-3.9,5.2-5.4,8.6C148.8,37.7,148.2,39.4,147.8,41.1z"/>
		<path class="st0" d="M185.2,35.9c-0.4,0-1.1,0.4-1.9,1.3c-0.8,0.8-1.5,1.6-2.1,2.3l-1.8,2.2l-3.5,4.4c-0.8,1.6-1.5,2.8-1.9,3.9
			l-1.1,2.5c-0.3,0.6-0.6,1-0.8,1.3c-0.2,0.2-0.5,0.4-0.9,0.4s-0.7-0.1-1.1-0.2s-0.6-0.3-0.9-0.5c-0.5-0.5-0.8-0.9-0.8-1.5
			c0-0.2,0.2-0.6,0.5-1.2l0.8-1.7c0.3-0.5,0.6-1.2,0.9-1.9l1.2-2.9c1.7-4.2,2.5-6.9,2.5-8.1c0-0.6-0.2-1.1-0.6-1.4l-0.4-0.3
			c-0.1-0.1-0.2-0.3-0.2-0.5s0.1-0.5,0.3-0.7s0.4-0.4,0.8-0.6c0.6-0.3,1.3-0.5,1.9-0.5s1.1,0.1,1.5,0.2c0.4,0.1,0.6,0.3,0.9,0.6
			c0.5,0.5,0.8,1,0.8,1.5c0,0.5-0.1,1.1-0.2,1.6c-0.1,0.5-0.3,1.1-0.5,1.7c-0.2,0.6-0.4,1.1-0.6,1.6c-0.2,0.5-0.4,1-0.6,1.4
			l-0.4,0.9c-0.1,0.2-0.1,0.3-0.1,0.2c1.6-2.2,2.6-3.6,3.1-4.2l1.5-1.8c1.1-1.3,1.9-2.1,2.6-2.5c1.3-0.8,2.2-1.3,3-1.3
			c0.7,0,1.3,0.1,1.8,0.3c0.5,0.2,0.9,0.4,1.3,0.8c0.8,0.7,1.2,1.6,1.2,2.8s-0.3,2.3-0.8,3.5c-0.5,1.2-1,2.2-1.3,3
			c-0.4,0.8-0.7,1.5-1.1,2.3c-1.1,2.4-1.6,4.1-1.6,5.1c0,0.5,0.4,0.7,1.1,0.7c0.6,0,1.1-0.1,1.6-0.4s0.8-0.4,0.9-0.4
			c0.3,0,0.4,0.1,0.4,0.4c0,1.3-0.6,2.3-1.9,3.2c-0.9,0.6-1.7,0.9-2.4,0.9c-0.7,0-1.3-0.1-1.8-0.2c-0.5-0.2-0.9-0.4-1.3-0.7
			c-0.8-0.7-1.2-1.8-1.2-3.1c0-1.6,0.5-3.7,1.5-6.1c0.7-1.7,1.3-2.8,1.6-3.5l0.7-1.5c0.4-0.9,0.7-1.6,0.7-2.1
			C186.4,36.2,186,35.9,185.2,35.9z"/>
		<path class="st0" d="M194.5,46.4c0.1-1.2,0.3-2.4,0.6-3.5c0.4-1.1,0.8-2.2,1.4-3.3c0.6-1.1,1.3-2,2.1-3c0.8-0.9,1.7-1.8,2.6-2.5
			c2-1.5,4.1-2.3,6.1-2.3c2.4,0,4,1,4.8,3c0.3,0.7,0.4,1.5,0.4,2.4c0,0.9-0.2,1.8-0.5,2.6c-0.3,0.8-0.8,1.5-1.4,2.1
			c-0.6,0.6-1.3,1.2-2.1,1.7c-0.8,0.5-1.7,0.9-2.7,1.3c-2,0.7-4.2,1.1-6.4,1.1c-0.1,0.2-0.1,0.5-0.1,0.9c0,0.4,0,0.8,0.1,1.3
			c0.1,0.5,0.3,0.9,0.5,1.3c0.5,0.8,1.2,1.3,2.2,1.3c1.6,0,3.2-0.5,4.8-1.4c0.6-0.3,1-0.7,1.3-1c0.3-0.3,0.6-0.5,0.9-0.5
			s0.5,0.2,0.7,0.5c0.2,0.3,0.3,0.6,0.3,1c0,0.7-0.2,1.4-0.6,1.9c-1.8,1.8-4.4,2.7-7.9,2.7c-2.1,0-3.7-0.6-5-1.9
			C195.1,50.8,194.4,48.8,194.5,46.4z M206.8,34.7c-1.5,0-2.9,1-4.3,3c-1.2,1.8-2.1,3.8-2.8,6.2c2.4-0.2,4.4-1.2,6.1-2.8
			c1.6-1.5,2.4-3,2.4-4.4C208.3,35.4,207.8,34.7,206.8,34.7z"/>
	</g>
	<g>
		<path class="st1" d="M126,2.8c0,6.9,20.6,7.9,29.8,7.9c8,0,16.1-0.4,24.1-0.8s16.4-0.8,24.4-0.8c30.1,0,39.7,9.7,42.9,18.4l0,0
			c-6.6-6.9-27.7-11.7-44.4-11.7c-7.1,0-14,0.4-21.4,0.7c-7.2,0.4-14.6,0.8-22.6,0.8c-19.1,0-29.5-2.7-32.8-7l0,0
			c-3.6,4.3-13.4,7-32.5,7c-8,0-15.2-0.4-22.6-0.8c-7.2-0.3-14.3-0.7-21.1-0.7c-16.1,0-38.7,5-43.5,11.5l0,0
			C8.6,18.7,19.4,9.2,46.8,9.2c8.3,0,16.4,0.4,24.7,0.8s16.7,0.8,25,0.8C106.9,10.7,126,9.7,126,2.8L126,2.8z"/>
	</g>
	<g>
		<path class="st1" d="M126,78.6c0-6.9-19-7.9-29.5-7.9c-8.3,0-16.7,0.4-25,0.8s-16.4,0.8-24.7,0.8C19.4,72.3,8.6,62.7,6.3,54l0,0
			c4.8,6.5,27.4,11.5,43.5,11.5c6.9,0,14-0.4,21.1-0.7c7.4-0.4,14.6-0.8,22.6-0.8c19.1,0,28.9,2.7,32.5,7l0,0c3.3-4.3,13.7-7,32.8-7
			c8,0,15.5,0.4,22.6,0.8c7.4,0.3,14.3,0.7,21.4,0.7c16.7,0,37.8-4.9,44.4-11.7l0,0c-3.2,8.7-12.8,18.4-42.9,18.4
			c-8,0-16.4-0.4-24.4-0.8s-16.1-0.8-24.1-0.8C146.5,70.7,126,71.7,126,78.6L126,78.6z"/>
	</g>
</g>
<g>
</g>
<g>
</g>
<g>
</g>
<g>
</g>
<g>
</g>
<g>
</g>
<g>
</g>
<g>
</g>
</svg>
