<svg xmlns="http://www.w3.org/2000/svg" width="253.5" height="81.4" viewBox="0 0 253.5 81.4"><style type="text/css">.st0{fill:#FFFFFF;} .st1{fill:#7B1820;}</style><path class="st0" d="M245.3 32.2l.1.4-.1-.4zm0 27.3l.1-.4c0 .1 0 .2-.1.4zm.1-.4v.4h-.1c.1-.2.1-.3.1-.4zm-208.6-14.9c.1-1.7.3-3.5.8-5.3s1.1-3.7 1.9-5.4c.8-1.7 1.8-3.4 2.9-4.9 1.1-1.5 2.4-2.9 3.7-4 2.9-2.4 5.9-3.6 9.1-3.6 3.8 0 6.3 1.7 7.5 5.2.4 1.2.6 2.7.6 4.5 0 1.8-.3 3.6-.8 5.5s-1.2 3.7-2 5.4c-.9 1.7-1.9 3.4-3 4.9s-2.4 2.8-3.7 4c-2.9 2.4-5.7 3.6-8.6 3.6-2.6 0-4.6-.8-6.1-2.5-1.7-1.8-2.4-4.3-2.3-7.4zm5.1-3.1c-.4 1.7-.7 3.2-.7 4.4 0 1.2 0 2.1.2 2.8.2.7.4 1.2.8 1.7.7 1 1.5 1.4 2.6 1.4s2.1-.3 3.2-1 2.1-1.6 3.1-2.8c1-1.2 2-2.5 2.9-4s1.7-3.1 2.4-4.7c2-4.8 2.7-8.7 2.2-11.8-.4-2.1-1.5-3.2-3.5-3.2-1.8 0-3.8 1.2-6 3.7-2.1 2.3-3.9 5.2-5.4 8.6-.8 1.5-1.3 3.2-1.8 4.9zm37.5-5.2c-.4 0-1.1.4-1.9 1.3-.8.8-1.5 1.6-2.1 2.3l-1.8 2.2-3.5 4.4c-.8 1.6-1.5 2.8-1.9 3.9l-1.2 2.4c-.3.6-.6 1-.8 1.3-.2.2-.5.4-.9.4s-.7-.1-1.1-.2c-.3-.1-.6-.3-.9-.5-.5-.5-.8-.9-.8-1.5 0-.2.2-.6.5-1.2l.8-1.7c.3-.5.6-1.2.9-1.9l1.2-2.9c1.7-4.2 2.5-6.9 2.5-8.1 0-.6-.2-1.1-.6-1.4l-.4-.3c-.1-.1-.2-.3-.2-.5s.1-.5.3-.7c.2-.2.4-.4.8-.6.6-.3 1.3-.5 1.9-.5.6 0 1.1.1 1.5.2.4.1.6.3.9.6.5.5.8 1 .8 1.5s-.1 1.1-.2 1.6-.3 1.1-.5 1.7c-.2.6-.4 1.1-.6 1.6-.2.5-.4 1-.6 1.4l-.4.9-.1.2c1.6-2.2 2.6-3.6 3.1-4.2l1.5-1.8c1.1-1.3 1.9-2.1 2.6-2.5 1.3-.8 2.2-1.3 3-1.3.7 0 1.3.1 1.8.3s.9.4 1.3.8c.8.7 1.2 1.6 1.2 2.8s-.3 2.3-.8 3.5c-.5 1.2-1 2.2-1.3 3l-1.1 2.3c-1.1 2.4-1.6 4.1-1.6 5.1 0 .5.4.7 1.1.7.6 0 1.1-.1 1.6-.4.5-.3.8-.4.9-.4.3 0 .4.1.4.4 0 1.3-.6 2.3-1.9 3.2-1 .5-1.8.7-2.5.7s-1.3 0-1.8-.2-.9-.4-1.3-.7c-.8-.7-1.2-1.8-1.2-3.1 0-1.6.5-3.7 1.5-6.1.7-1.7 1.3-2.8 1.6-3.5l.7-1.5c.4-.9.7-1.6.7-2.1 0-.6-.4-.9-1.1-.9zm9.2 10.5c.1-1.2.3-2.4.6-3.5.4-1.1.8-2.2 1.4-3.3.6-1.1 1.3-2 2.1-3 .8-.9 1.7-1.8 2.6-2.5 2-1.5 4.1-2.3 6.1-2.3 2.4 0 4 1 4.8 3 .3.7.4 1.5.4 2.4 0 .9-.2 1.8-.5 2.6s-.8 1.5-1.4 2.1c-.6.6-1.3 1.2-2.1 1.7s-1.7.9-2.7 1.3c-2 .7-4.2 1.1-6.4 1.1-.1.2-.1.5-.1.9s0 .8.1 1.3.3.9.5 1.3c.5.8 1.2 1.3 2.2 1.3 1.6 0 3.2-.5 4.8-1.4.6-.3 1-.7 1.3-1 .3-.3.6-.5.9-.5s.5.2.7.5c.2.3.3.6.3 1 0 .7-.2 1.4-.6 1.9-1.8 1.8-4.4 2.7-7.9 2.7-2.1 0-3.7-.6-5-1.9-1.5-1.3-2.2-3.3-2.1-5.7zm12.4-11.7c-1.5 0-2.9 1-4.3 3-1.2 1.8-2.1 3.8-2.8 6.2 2.4-.2 4.4-1.2 6.1-2.8 1.6-1.5 2.4-3 2.4-4.4.1-1.3-.4-2-1.4-2zm24.7 11.3c-.4 0-.6-.2-.6-.7v-4.5h-4.1c-.5 0-.8-.2-.8-.6 0-.3.1-.5.3-.7.3-.3.6-.5.9-.5h3.8v-3.8c0-.3.1-.5.3-.7.3-.3.6-.5.9-.5.4 0 .6.3.6.8v4.2h4.5c.4 0 .7.2.7.6 0 .3-.1.5-.3.7-.3.3-.7.5-1 .5h-3.9v3.9c0 .4-.1.6-.3.8-.4.3-.7.5-1 .5zm16.9-1.8c.1-1.7.3-3.5.8-5.3.5-1.9 1.1-3.7 1.9-5.4.8-1.7 1.8-3.4 2.9-4.9 1.1-1.5 2.4-2.9 3.7-4 2.9-2.4 5.9-3.6 9.1-3.6 3.8 0 6.3 1.7 7.5 5.2.4 1.2.6 2.7.6 4.5 0 1.8-.3 3.6-.8 5.5s-1.2 3.7-2 5.4c-.9 1.7-1.9 3.4-3 4.9-1.1 1.5-2.4 2.8-3.7 4-2.9 2.4-5.7 3.6-8.6 3.6-2.6 0-4.6-.8-6.1-2.5-1.7-1.8-2.4-4.3-2.3-7.4zm5.2-3.1c-.4 1.7-.7 3.2-.7 4.4s0 2.1.2 2.8c.2.7.4 1.2.8 1.7.7 1 1.5 1.4 2.6 1.4s2.1-.3 3.2-1 2.1-1.6 3.1-2.8c1-1.2 2-2.5 2.9-4 .9-1.5 1.7-3.1 2.4-4.7 2-4.8 2.7-8.7 2.2-11.8-.4-2.1-1.5-3.2-3.5-3.2-1.8 0-3.8 1.2-6 3.7-2.1 2.3-3.9 5.2-5.4 8.6-.8 1.5-1.4 3.2-1.8 4.9zm37.4-5.2c-.4 0-1.1.4-1.9 1.3-.8.8-1.5 1.6-2.1 2.3l-1.8 2.2-3.5 4.4c-.8 1.6-1.5 2.8-1.9 3.9l-1.1 2.5c-.3.6-.6 1-.8 1.3-.2.2-.5.4-.9.4s-.7-.1-1.1-.2-.6-.3-.9-.5c-.5-.5-.8-.9-.8-1.5 0-.2.2-.6.5-1.2l.8-1.7c.3-.5.6-1.2.9-1.9l1.2-2.9c1.7-4.2 2.5-6.9 2.5-8.1 0-.6-.2-1.1-.6-1.4l-.4-.3c-.1-.1-.2-.3-.2-.5s.1-.5.3-.7.4-.4.8-.6c.6-.3 1.3-.5 1.9-.5s1.1.1 1.5.2c.4.1.6.3.9.6.5.5.8 1 .8 1.5s-.1 1.1-.2 1.6-.3 1.1-.5 1.7c-.2.6-.4 1.1-.6 1.6-.2.5-.4 1-.6 1.4l-.4.9-.1.2c1.6-2.2 2.6-3.6 3.1-4.2l1.5-1.8c1.1-1.3 1.9-2.1 2.6-2.5 1.3-.8 2.2-1.3 3-1.3.7 0 1.3.1 1.8.3.5.2.9.4 1.3.8.8.7 1.2 1.6 1.2 2.8s-.3 2.3-.8 3.5c-.5 1.2-1 2.2-1.3 3l-1.1 2.3c-1.1 2.4-1.6 4.1-1.6 5.1 0 .5.4.7 1.1.7.6 0 1.1-.1 1.6-.4s.8-.4.9-.4c.3 0 .4.1.4.4 0 1.3-.6 2.3-1.9 3.2-.9.6-1.7.9-2.4.9s-1.3-.1-1.8-.2c-.5-.2-.9-.4-1.3-.7-.8-.7-1.2-1.8-1.2-3.1 0-1.6.5-3.7 1.5-6.1.7-1.7 1.3-2.8 1.6-3.5l.7-1.5c.4-.9.7-1.6.7-2.1-.1-.9-.5-1.2-1.3-1.2zm9.3 10.5c.1-1.2.3-2.4.6-3.5.4-1.1.8-2.2 1.4-3.3.6-1.1 1.3-2 2.1-3 .8-.9 1.7-1.8 2.6-2.5 2-1.5 4.1-2.3 6.1-2.3 2.4 0 4 1 4.8 3 .3.7.4 1.5.4 2.4 0 .9-.2 1.8-.5 2.6s-.8 1.5-1.4 2.1c-.6.6-1.3 1.2-2.1 1.7s-1.7.9-2.7 1.3c-2 .7-4.2 1.1-6.4 1.1-.1.2-.1.5-.1.9s0 .8.1 1.3.3.9.5 1.3c.5.8 1.2 1.3 2.2 1.3 1.6 0 3.2-.5 4.8-1.4.6-.3 1-.7 1.3-1 .3-.3.6-.5.9-.5s.5.2.7.5c.2.3.3.6.3 1 0 .7-.2 1.4-.6 1.9-1.8 1.8-4.4 2.7-7.9 2.7-2.1 0-3.7-.6-5-1.9-1.5-1.3-2.2-3.3-2.1-5.7zm12.3-11.7c-1.5 0-2.9 1-4.3 3-1.2 1.8-2.1 3.8-2.8 6.2 2.4-.2 4.4-1.2 6.1-2.8 1.6-1.5 2.4-3 2.4-4.4.1-1.3-.4-2-1.4-2z"/><path class="st1" d="M126 2.8c0 6.9 20.6 7.9 29.8 7.9 8 0 16.1-.4 24.1-.8s16.4-.8 24.4-.8c30.1 0 39.7 9.7 42.9 18.4-6.6-6.9-27.7-11.7-44.4-11.7-7.1 0-14 .4-21.4.7-7.2.4-14.6.8-22.6.8-19.1 0-29.5-2.7-32.8-7-3.6 4.3-13.4 7-32.5 7-8 0-15.2-.4-22.6-.8-7.2-.3-14.3-.7-21.1-.7-16.1 0-38.7 5-43.5 11.5 2.3-8.6 13.1-18.1 40.5-18.1 8.3 0 16.4.4 24.7.8s16.7.8 25 .8c10.4-.1 29.5-1.1 29.5-8zm0 75.8c0-6.9-19-7.9-29.5-7.9-8.3 0-16.7.4-25 .8s-16.4.8-24.7.8c-27.4 0-38.2-9.6-40.5-18.3 4.8 6.5 27.4 11.5 43.5 11.5 6.9 0 14-.4 21.1-.7 7.4-.4 14.6-.8 22.6-.8 19.1 0 28.9 2.7 32.5 7 3.3-4.3 13.7-7 32.8-7 8 0 15.5.4 22.6.8 7.4.3 14.3.7 21.4.7 16.7 0 37.8-4.9 44.4-11.7-3.2 8.7-12.8 18.4-42.9 18.4-8 0-16.4-.4-24.4-.8s-16.1-.8-24.1-.8c-9.3.1-29.8 1.1-29.8 8z"/></svg>